<svg xmlns="http://www.w3.org/2000/svg" viewBox="0 0 560 390" width="560" height="390">
<rect width="560" height="390" fill="#0A66C2"/>
<g transform="translate(88.38,185) scale(0.22,-0.22)">
<path transform="translate(0,0)" fill="#FFFFFF" d="M506 632 537 350Q563 119 645 104Q684 96 677 34Q672 -3 657 -11Q654 -12 651.5 -13.5Q649 -15 645 -15Q581 -15 531 53Q538 1 538.5 -53.5Q539 -108 532 -164Q522 -249 471 -288Q361 -371 260 -374Q160 -377 107 -317Q55 -260 66 -153Q74 -77 148 37Q160 56 171 45Q181 35 170 19Q95 -94 121 -166Q151 -248 298 -239Q417 -231 500 -151L442 522Q439 556 448 577L477 647Q488 674 495.0 670.5Q502 667 506 632Z"/>
<path transform="translate(644,0)" fill="#FFFFFF" d="M76 75Q45 -16 0 -15Q-15 -15 -24 5Q-42 48 -32 74Q-22 100 -3 104Q50 114 84 174Q96 195 113 195Q131 195 145 172Q169 132 247 106Q272 134 292.0 154.5Q312 175 327 188Q457 300 523 300Q561 300 607 263Q643 233 636 190Q629 147 601 98Q574 50 561 40Q464 -30 326 -30Q273 -30 212 -16Q199 -43 192 -78Q186 -101 167 -95Q147 -89 152 -64Q154 -52 159.5 -36.0Q165 -20 172 0Q123 16 76 75ZM570 128Q512 171 440 167Q386 164 295 94Q321 93 358.5 95.0Q396 97 445 101Q545 110 570 128Z"/>
<path transform="translate(1342,0)" fill="#CE1126" d="M165 204Q204 311 251 310Q286 309 314 264Q340 221 345 165Q350 110 327 18Q305 -73 240 -151Q175 -229 131 -233Q95 -238 25 -223Q-9 -216 -35.5 -208.5Q-62 -201 -79 -194Q-90 -189 -87 -177Q-84 -164 -68 -167Q-8 -176 75 -157Q116 -148 195 -79Q235 -44 259.5 -16.5Q284 11 291 33Q290 38 287.5 45.5Q285 53 282 62Q240 8 181 35Q114 65 165 204ZM260 157Q231 204 198 161Q223 133 260 157Z"/>
</g>
<path fill="#FFFFFF" d="M435.32,130.44 L439.10,141.52 L450.11,137.56 L443.80,147.42 L453.77,153.57 L442.12,154.79 L443.53,166.41 L435.32,158.06 L427.11,166.41 L428.52,154.79 L416.87,153.57 L426.84,147.42 L420.53,137.56 L431.54,141.52 Z"/>
<g transform="translate(176.86,304) scale(0.03,-0.03)">
<path transform="translate(0,0)" fill="#FFFFFF" d="M1567 0H1217L1026 815Q991 959 967 1116Q943 985 928.0 916.5Q913 848 715 0H365L2 1409H301L505 499L551 279Q579 418 605.5 544.5Q632 671 805 1409H1135L1313 659Q1334 575 1384 279L1409 395L1462 625L1632 1409H1931Z"/>
<path transform="translate(2140,0)" fill="#FFFFFF" d="M1133 0 1008 360H471L346 0H51L565 1409H913L1425 0ZM739 1192 733 1170Q723 1134 709.0 1088.0Q695 1042 537 582H942L803 987L760 1123Z"/>
<path transform="translate(3939,0)" fill="#FFFFFF" d="M1286 406Q1286 199 1132.5 89.5Q979 -20 682 -20Q411 -20 257.0 76.0Q103 172 59 367L344 414Q373 302 457.0 251.5Q541 201 690 201Q999 201 999 389Q999 449 963.5 488.0Q928 527 863.5 553.0Q799 579 616 616Q458 653 396.0 675.5Q334 698 284.0 728.5Q234 759 199.0 802.0Q164 845 144.5 903.0Q125 961 125 1036Q125 1227 268.5 1328.5Q412 1430 686 1430Q948 1430 1079.5 1348.0Q1211 1266 1249 1077L963 1038Q941 1129 873.5 1175.0Q806 1221 680 1221Q412 1221 412 1053Q412 998 440.5 963.0Q469 928 525.0 903.5Q581 879 752 842Q955 799 1042.5 762.5Q1130 726 1181.0 677.5Q1232 629 1259.0 561.5Q1286 494 1286 406Z"/>
<path transform="translate(5625,0)" fill="#FFFFFF" d="M137 0V1409H432V228H1188V0Z"/>
</g>
<rect x="266.0" y="328" width="28" height="2.5" rx="1.25" fill="#FFFFFF" opacity="0.7"/>
</svg>
